<mxfile host="app.diagrams.net" modified="2023-01-12T01:36:16.921Z" agent="5.0 (Windows NT 10.0; Win64; x64) AppleWebKit/537.36 (KHTML, like Gecko) Chrome/108.0.0.0 Safari/537.36" etag="DeeZXmEsBe81KzSHlPdu" version="20.8.3" type="github">
  <diagram name="Page-1" id="c7558073-3199-34d8-9f00-42111426c3f3">
    <mxGraphModel dx="967" dy="603" grid="1" gridSize="10" guides="1" tooltips="1" connect="1" arrows="1" fold="1" page="1" pageScale="1" pageWidth="826" pageHeight="1169" background="none" math="0" shadow="0">
      <root>
        <mxCell id="0" />
        <mxCell id="1" parent="0" />
        <mxCell id="KmuU6-aL0oM5qH1PyW8g-114" value="" style="whiteSpace=wrap;html=1;aspect=fixed;rounded=0;fillWeight=4;hachureGap=8;hachureAngle=45;jiggle=1;curveFitting=0.95;strokeColor=#666666;strokeWidth=4;fillColor=#FFFFFF;" vertex="1" parent="1">
          <mxGeometry x="180" y="60" width="510" height="510" as="geometry" />
        </mxCell>
        <mxCell id="KmuU6-aL0oM5qH1PyW8g-115" value="FLUXO SIMPLES DE CARGA 02" style="text;html=1;align=center;verticalAlign=middle;resizable=0;points=[];autosize=1;strokeColor=none;fillColor=default;strokeWidth=2;fontSize=17;fontStyle=1" vertex="1" parent="1">
          <mxGeometry x="291" y="20" width="280" height="30" as="geometry" />
        </mxCell>
        <mxCell id="KmuU6-aL0oM5qH1PyW8g-110" value="" style="whiteSpace=wrap;html=1;aspect=fixed;rounded=1;opacity=70;strokeWidth=4;strokeColor=#666666;" vertex="1" parent="1">
          <mxGeometry x="260" y="209" width="330" height="330" as="geometry" />
        </mxCell>
        <mxCell id="KmuU6-aL0oM5qH1PyW8g-96" value="" style="edgeStyle=orthogonalEdgeStyle;rounded=0;orthogonalLoop=1;jettySize=auto;html=1;" edge="1" parent="1" source="KmuU6-aL0oM5qH1PyW8g-98" target="KmuU6-aL0oM5qH1PyW8g-99">
          <mxGeometry relative="1" as="geometry" />
        </mxCell>
        <mxCell id="KmuU6-aL0oM5qH1PyW8g-98" value="" style="rhombus;whiteSpace=wrap;html=1;strokeWidth=4;fillWeight=-1;hachureGap=8;fillStyle=cross-hatch;fillColor=#006600;sketch=1;rounded=1;opacity=70;" vertex="1" parent="1">
          <mxGeometry x="365" y="339" width="120" height="60" as="geometry" />
        </mxCell>
        <mxCell id="KmuU6-aL0oM5qH1PyW8g-99" value="" style="rounded=1;whiteSpace=wrap;html=1;strokeWidth=4;fillWeight=4;hachureGap=8;hachureAngle=45;fillColor=#66FFB3;sketch=1;opacity=70;" vertex="1" parent="1">
          <mxGeometry x="365" y="439" width="120" height="60" as="geometry" />
        </mxCell>
        <mxCell id="KmuU6-aL0oM5qH1PyW8g-100" value="" style="edgeStyle=orthogonalEdgeStyle;rounded=0;orthogonalLoop=1;jettySize=auto;html=1;" edge="1" parent="1" source="KmuU6-aL0oM5qH1PyW8g-101" target="KmuU6-aL0oM5qH1PyW8g-98">
          <mxGeometry relative="1" as="geometry" />
        </mxCell>
        <mxCell id="KmuU6-aL0oM5qH1PyW8g-101" value="" style="rounded=1;whiteSpace=wrap;html=1;strokeWidth=4;fillWeight=4;hachureGap=8;hachureAngle=45;fillColor=#00FFFF;sketch=1;opacity=70;" vertex="1" parent="1">
          <mxGeometry x="365" y="239" width="120" height="60" as="geometry" />
        </mxCell>
        <mxCell id="KmuU6-aL0oM5qH1PyW8g-103" value="Tabela Candidato" style="text;html=1;align=center;verticalAlign=middle;resizable=0;points=[];autosize=1;strokeColor=none;fillColor=none;rounded=1;" vertex="1" parent="1">
          <mxGeometry x="365" y="509" width="120" height="30" as="geometry" />
        </mxCell>
        <mxCell id="KmuU6-aL0oM5qH1PyW8g-104" value="Arquivo Candidato" style="text;html=1;align=center;verticalAlign=middle;resizable=0;points=[];autosize=1;strokeColor=none;fillColor=none;rounded=1;" vertex="1" parent="1">
          <mxGeometry x="365" y="209" width="120" height="30" as="geometry" />
        </mxCell>
        <mxCell id="KmuU6-aL0oM5qH1PyW8g-105" value="Tabela Cargo" style="text;html=1;align=center;verticalAlign=middle;resizable=0;points=[];autosize=1;strokeColor=none;fillColor=none;rounded=1;" vertex="1" parent="1">
          <mxGeometry x="275" y="354" width="90" height="30" as="geometry" />
        </mxCell>
        <mxCell id="KmuU6-aL0oM5qH1PyW8g-113" style="edgeStyle=orthogonalEdgeStyle;rounded=0;orthogonalLoop=1;jettySize=auto;html=1;" edge="1" parent="1" source="KmuU6-aL0oM5qH1PyW8g-111" target="KmuU6-aL0oM5qH1PyW8g-104">
          <mxGeometry relative="1" as="geometry" />
        </mxCell>
        <mxCell id="KmuU6-aL0oM5qH1PyW8g-111" value="" style="rounded=1;whiteSpace=wrap;html=1;gradientColor=none;sketch=1;curveFitting=0.95;jiggle=1;fillColor=#B57F48;strokeWidth=4;opacity=70;shadow=0;glass=0;perimeterSpacing=0;fillWeight=4;hachureGap=8;hachureAngle=45;" vertex="1" parent="1">
          <mxGeometry x="365" y="93" width="120" height="59" as="geometry" />
        </mxCell>
        <mxCell id="KmuU6-aL0oM5qH1PyW8g-112" value="Limpa Tabela Candidato" style="text;html=1;align=center;verticalAlign=middle;resizable=0;points=[];autosize=1;strokeColor=none;fillColor=none;rounded=1;" vertex="1" parent="1">
          <mxGeometry x="420" y="152" width="150" height="30" as="geometry" />
        </mxCell>
      </root>
    </mxGraphModel>
  </diagram>
</mxfile>
